<?xml version="1.0" encoding="utf-8"?>
<!-- Generated by IcoMoon.io -->
<!DOCTYPE svg PUBLIC "-//W3C//DTD SVG 1.1//EN" "http://www.w3.org/Graphics/SVG/1.1/DTD/svg11.dtd">
<svg version="1.1" xmlns="http://www.w3.org/2000/svg" xmlns:xlink="http://www.w3.org/1999/xlink" width="768" height="768" viewBox="0 0 768 768">
<g id="icomoon-ignore">
</g>
<path d="M384 415.5c85.5 0 256.5 43.5 256.5 129v96h-513v-96c0-85.5 171-129 256.5-129zM384 127.5c70.5 0 127.5 58.5 127.5 129s-57 127.5-127.5 127.5-127.5-57-127.5-127.5 57-129 127.5-129zM384 477c-94.5 0-195 46.5-195 67.5v34.5h390v-34.5c0-21-100.5-67.5-195-67.5zM384 189c-37.5 0-67.5 30-67.5 67.5s30 66 67.5 66 67.5-28.5 67.5-66-30-67.5-67.5-67.5z"></path>
</svg>
