<?xml version="1.0" encoding="utf-8"?>
<!-- Generated by IcoMoon.io -->
<!DOCTYPE svg PUBLIC "-//W3C//DTD SVG 1.1//EN" "http://www.w3.org/Graphics/SVG/1.1/DTD/svg11.dtd">
<svg version="1.1" xmlns="http://www.w3.org/2000/svg" xmlns:xlink="http://www.w3.org/1999/xlink" width="768" height="768" viewBox="0 0 768 768">
<g id="icomoon-ignore">
</g>
<path d="M607.5 640.5v-352.5h-447v352.5h447zM607.5 127.5c34.5 0 64.5 30 64.5 64.5v448.5c0 34.5-30 63-64.5 63h-447c-36 0-64.5-28.5-64.5-63v-448.5c0-34.5 28.5-64.5 64.5-64.5h31.5v-63h64.5v63h255v-63h64.5v63h31.5zM544.5 352.5v63h-64.5v-63h64.5zM415.5 352.5v63h-63v-63h63zM288 352.5v63h-64.5v-63h64.5z"></path>
</svg>
