<!-- Generated by IcoMoon.io -->
<svg version="1.1" xmlns="http://www.w3.org/2000/svg" width="768" height="768" viewBox="0 0 768 768">
<title></title>
<g id="icomoon-ignore">
</g>
<path d="M576 514.5c51 0 93 42 93 93s-42 94.5-93 94.5-93-43.5-93-94.5c0-7.5 0-15 1.5-21l-226.5-132c-18 16.5-40.5 25.5-66 25.5-52.5 0-96-43.5-96-96s43.5-96 96-96c25.5 0 48 9 66 25.5l225-130.5c-1.5-7.5-3-15-3-22.5 0-52.5 43.5-96 96-96s96 43.5 96 96-43.5 96-96 96c-25.5 0-48-10.5-66-27l-225 132c1.5 7.5 3 15 3 22.5s-1.5 15-3 22.5l228 132c16.5-15 39-24 63-24z"></path>
</svg>
