<!-- Generated by IcoMoon.io -->
<svg version="1.1" xmlns="http://www.w3.org/2000/svg" width="768" height="768" viewBox="0 0 768 768">
<title></title>
<g id="icomoon-ignore">
</g>
<path d="M384 319.5h-64.5v64.5h-31.5v-64.5h-64.5v-31.5h64.5v-64.5h31.5v64.5h64.5v31.5zM304.5 448.5c79.5 0 144-64.5 144-144s-64.5-144-144-144-144 64.5-144 144 64.5 144 144 144zM496.5 448.5l159 159-48 48-159-159v-25.5l-9-9c-36 31.5-84 49.5-135 49.5-115.5 0-208.5-91.5-208.5-207s93-208.5 208.5-208.5 207 93 207 208.5c0 51-18 99-49.5 135l9 9h25.5z"></path>
</svg>
